<svg xmlns="http://www.w3.org/2000/svg" version="1.1" viewBox="0 0 1024 1024">
<g transform="scale(4.000000) translate(0.5 0.5)">
<polygon fill="#00ffff" fill-opacity="0.501961" points="198,158 100,197 156,195" />
<polygon fill="#00ffff" fill-opacity="0.501961" points="202,130 183,180 189,83" />
<polygon fill="#00edff" fill-opacity="0.501961" points="116,195 77,180 54,129" />
<polygon fill="#00a0ff" fill-opacity="0.501961" points="193,93 110,54 163,59" />
<polygon fill="#007fff" fill-opacity="0.501961" points="58,137 61,92 108,53" />
<polygon fill="#0073ff" fill-opacity="0.501961" points="144,57 73,81 98,59" />
<polygon fill="#00ffff" fill-opacity="0.501961" points="197,137 184,172 157,190" />
<polygon fill="#00e8ff" fill-opacity="0.501961" points="98,192 68,163 129,195" />
<polygon fill="#0094ff" fill-opacity="0.501961" points="56,125 71,164 67,91" />
<polygon fill="#00b4ff" fill-opacity="0.501961" points="188,84 201,118 157,62" />
<polygon fill="#211813" fill-opacity="0.501961" points="3,271 271,253 -16,149" />
<polygon fill="#2f1613" fill-opacity="0.501961" points="75,164 173,170 134,188" />
<polygon fill="#211914" fill-opacity="0.501961" points="271,-16 251,271 160,-4" />
<polygon fill="#221914" fill-opacity="0.501961" points="139,-14 -16,1 19,159" />
<polygon fill="#00ffff" fill-opacity="0.501961" points="143,197 105,192 170,182" />
<polygon fill="#2d2018" fill-opacity="0.501961" points="67,114 81,168 98,69" />
<polygon fill="#00dbff" fill-opacity="0.501961" points="192,103 187,163 201,129" />
<polygon fill="#332823" fill-opacity="0.501961" points="139,63 177,85 79,168" />
<polygon fill="#231d1a" fill-opacity="0.501961" points="145,228 271,248 208,139" />
<polygon fill="#0076ff" fill-opacity="0.501961" points="144,55 110,59 172,73" />
<polygon fill="#332925" fill-opacity="0.501961" points="187,103 191,140 80,165" />
<polygon fill="#00b7ff" fill-opacity="0.501961" points="79,180 65,149 102,187" />
<polygon fill="#251f1b" fill-opacity="0.501961" points="135,-16 221,39 89,61" />
<polygon fill="#006eff" fill-opacity="0.501961" points="73,79 64,108 93,69" />
<polygon fill="#242120" fill-opacity="0.501961" points="44,-6 65,179 -16,151" />
<polygon fill="#272626" fill-opacity="0.501961" points="101,182 158,180 72,152" />
<polygon fill="#009bff" fill-opacity="0.501961" points="63,156 60,121 79,168" />
<polygon fill="#2e2b29" fill-opacity="0.501961" points="76,86 179,165 139,188" />
<polygon fill="#00ddf7" fill-opacity="0.501961" points="138,194 194,154 170,186" />
<polygon fill="#006aff" fill-opacity="0.501961" points="112,56 128,61 82,74" />
<polygon fill="#272625" fill-opacity="0.501961" points="31,129 41,206 146,247" />
<polygon fill="#282422" fill-opacity="0.501961" points="121,64 66,135 77,91" />
<polygon fill="#262727" fill-opacity="0.501961" points="197,217 244,137 200,19" />
<polygon fill="#00d2f6" fill-opacity="0.501961" points="96,183 145,194 117,198" />
<polygon fill="#00b4ff" fill-opacity="0.501961" points="195,137 183,84 198,107" />
<polygon fill="#252322" fill-opacity="0.501961" points="141,-16 226,80 132,52" />
<polygon fill="#262525" fill-opacity="0.501961" points="78,209 183,188 189,244" />
<polygon fill="#252628" fill-opacity="0.501961" points="176,167 87,171 128,189" />
<polygon fill="#2b2827" fill-opacity="0.501961" points="145,65 67,105 177,87" />
<polygon fill="#00ddf6" fill-opacity="0.501961" points="192,161 170,178 196,129" />
<polygon fill="#006fff" fill-opacity="0.501961" points="62,102 80,77 64,127" />
<polygon fill="#2d2c2b" fill-opacity="0.501961" points="70,100 76,160 182,107" />
<polygon fill="#272322" fill-opacity="0.501961" points="158,147 185,148 189,120" />
<polygon fill="#007cff" fill-opacity="0.501961" points="170,74 151,58 126,59" />
<polygon fill="#262727" fill-opacity="0.501961" points="29,81 140,49 83,16" />
<polygon fill="#252525" fill-opacity="0.501961" points="120,197 164,256 60,186" />
<polygon fill="#252829" fill-opacity="0.501961" points="187,171 206,180 147,200" />
<polygon fill="#21272b" fill-opacity="0.501961" points="66,131 76,158 81,90" />
<polygon fill="#00f1ff" fill-opacity="0.501961" points="171,178 154,194 129,194" />
<polygon fill="#0062f3" fill-opacity="0.501961" points="69,94 86,68 108,61" />
<polygon fill="#02c2ea" fill-opacity="0.501961" points="89,179 129,193 101,194" />
<polygon fill="#2d2c2b" fill-opacity="0.501961" points="159,83 86,170 157,182" />
<polygon fill="#262321" fill-opacity="0.501961" points="112,66 85,83 161,73" />
<polygon fill="#252526" fill-opacity="0.501961" points="69,56 -16,90 54,138" />
<polygon fill="#0288e8" fill-opacity="0.501961" points="60,146 58,114 82,169" />
<polygon fill="#242323" fill-opacity="0.501961" points="49,97 70,175 -16,145" />
<polygon fill="#019ae8" fill-opacity="0.501961" points="172,77 191,87 198,114" />
<polygon fill="#242424" fill-opacity="0.501961" points="179,203 210,102 263,155" />
<polygon fill="#2b2a2a" fill-opacity="0.501961" points="189,134 178,163 96,155" />
<polygon fill="#04d1da" fill-opacity="0.501961" points="113,188 134,197 136,189" />
<polygon fill="#0f9297" fill-opacity="0.501961" points="171,183 162,186 160,192" />
<polygon fill="#222326" fill-opacity="0.501961" points="115,169 71,149 84,169" />
<polygon fill="#252424" fill-opacity="0.501961" points="96,73 137,65 165,79" />
<polygon fill="#1d1d1d" fill-opacity="0.501961" points="271,271 269,142 137,271" />
<polygon fill="#1d1c1c" fill-opacity="0.501961" points="-16,253 46,257 -14,25" />
<polygon fill="#2a2b2b" fill-opacity="0.501961" points="171,81 187,101 97,100" />
<polygon fill="#00cef7" fill-opacity="0.501961" points="197,138 195,112 189,143" />
<polygon fill="#252525" fill-opacity="0.501961" points="187,10 237,120 158,57" />
<polygon fill="#272a2b" fill-opacity="0.501961" points="78,140 138,187 108,185" />
<polygon fill="#252627" fill-opacity="0.501961" points="180,221 105,192 105,223" />
<polygon fill="#1c4457" fill-opacity="0.501961" points="198,113 193,94 205,115" />
<polygon fill="#252525" fill-opacity="0.501961" points="141,235 215,180 151,194" />
<polygon fill="#242525" fill-opacity="0.501961" points="-16,154 73,172 131,235" />
<polygon fill="#0467d6" fill-opacity="0.501961" points="79,90 70,101 79,79" />
<polygon fill="#272828" fill-opacity="0.501961" points="144,84 187,102 189,138" />
<polygon fill="#00b9fe" fill-opacity="0.501961" points="74,158 94,181 74,168" />
<polygon fill="#1b1b1b" fill-opacity="0.501961" points="264,-16 258,68 171,-16" />
<polygon fill="#0175e9" fill-opacity="0.501961" points="58,113 72,90 64,141" />
<polygon fill="#1b1b1c" fill-opacity="0.501961" points="1,-3 57,-16 0,97" />
<polygon fill="#2b2b2b" fill-opacity="0.501961" points="74,101 192,117 122,65" />
<polygon fill="#23353f" fill-opacity="0.501961" points="90,66 66,85 73,70" />
<polygon fill="#252525" fill-opacity="0.501961" points="146,57 91,4 217,69" />
<polygon fill="#222428" fill-opacity="0.501961" points="67,113 87,83 92,95" />
<polygon fill="#0180e9" fill-opacity="0.501961" points="172,75 152,69 156,60" />
<polygon fill="#01d6e9" fill-opacity="0.501961" points="135,186 164,188 143,196" />
<polygon fill="#00bcee" fill-opacity="0.501961" points="191,110 199,133 200,121" />
<polygon fill="#232222" fill-opacity="0.501961" points="159,160 174,168 136,185" />
<polygon fill="#137c7f" fill-opacity="0.501961" points="171,173 162,178 166,171" />
<polygon fill="#0098fb" fill-opacity="0.501961" points="178,75 166,71 185,92" />
<polygon fill="#0069fe" fill-opacity="0.501961" points="133,56 124,63 107,62" />
<polygon fill="#1f3744" fill-opacity="0.501961" points="168,192 172,181 180,176" />
<polygon fill="#262626" fill-opacity="0.501961" points="107,30 29,92 45,119" />
<polygon fill="#0c5fad" fill-opacity="0.501961" points="127,61 127,53 121,53" />
<polygon fill="#202f36" fill-opacity="0.501961" points="112,187 104,178 137,185" />
<polygon fill="#1e323a" fill-opacity="0.501961" points="59,146 64,168 69,164" />
<polygon fill="#242424" fill-opacity="0.501961" points="201,148 248,199 151,229" />
<polygon fill="#242525" fill-opacity="0.501961" points="172,68 206,101 237,65" />
<polygon fill="#252525" fill-opacity="0.501961" points="153,46 88,62 102,14" />
<polygon fill="#2c2c2c" fill-opacity="0.501961" points="73,100 159,74 130,184" />
<polygon fill="#2b2b2b" fill-opacity="0.501961" points="81,153 147,186 153,131" />
</g>
</svg>
